<mxfile host="drawio-plugin" agent="Mozilla/5.0 (X11; Linux x86_64) AppleWebKit/537.36 (KHTML, like Gecko) Chrome/122.0.0.0 Safari/537.36" modified="2025-10-04T00:01:28.776Z" version="22.1.22" etag="QeZEDsU98dvdZXPRo5YA" type="embed">
  <diagram name="Seite-1" id="tv3RCUC1lsHie5otSo7a">
    <mxGraphModel dx="1413" dy="1064" grid="0" gridSize="10" guides="1" tooltips="1" connect="1" arrows="1" fold="1" page="1" pageScale="1" pageWidth="827" pageHeight="1169" background="#ffffff" math="0" shadow="0">
      <root>
        <mxCell id="0" />
        <mxCell id="1" parent="0" />
        <mxCell id="R6EGx2aFgqs3BERjV3u7-412" value="&amp;lt;&amp;lt;interface&amp;gt;&amp;gt;&lt;br&gt;&lt;b&gt;LoginViewModel&lt;/b&gt;" style="swimlane;fontStyle=0;align=center;verticalAlign=top;childLayout=stackLayout;horizontal=1;startSize=40;horizontalStack=0;resizeParent=1;resizeParentMax=0;resizeLast=0;collapsible=0;marginBottom=0;html=1;whiteSpace=wrap;" parent="1" vertex="1">
          <mxGeometry x="315" y="996" width="211" height="168" as="geometry" />
        </mxCell>
        <mxCell id="R6EGx2aFgqs3BERjV3u7-416" value="identifier: FormControl&amp;lt;string&amp;gt;" style="text;html=1;strokeColor=none;fillColor=none;align=left;verticalAlign=middle;spacingLeft=4;spacingRight=4;overflow=hidden;rotatable=0;points=[[0,0.5],[1,0.5]];portConstraint=eastwest;whiteSpace=wrap;" parent="R6EGx2aFgqs3BERjV3u7-412" vertex="1">
          <mxGeometry y="40" width="211" height="20" as="geometry" />
        </mxCell>
        <mxCell id="R6EGx2aFgqs3BERjV3u7-421" value="password: FormControl&amp;lt;string&amp;gt;" style="text;html=1;strokeColor=none;fillColor=none;align=left;verticalAlign=middle;spacingLeft=4;spacingRight=4;overflow=hidden;rotatable=0;points=[[0,0.5],[1,0.5]];portConstraint=eastwest;whiteSpace=wrap;" parent="R6EGx2aFgqs3BERjV3u7-412" vertex="1">
          <mxGeometry y="60" width="211" height="20" as="geometry" />
        </mxCell>
        <mxCell id="R6EGx2aFgqs3BERjV3u7-422" value="passwordVisible: Signal&amp;lt;boolean&amp;gt;" style="text;html=1;strokeColor=none;fillColor=none;align=left;verticalAlign=middle;spacingLeft=4;spacingRight=4;overflow=hidden;rotatable=0;points=[[0,0.5],[1,0.5]];portConstraint=eastwest;whiteSpace=wrap;" parent="R6EGx2aFgqs3BERjV3u7-412" vertex="1">
          <mxGeometry y="80" width="211" height="20" as="geometry" />
        </mxCell>
        <mxCell id="R6EGx2aFgqs3BERjV3u7-417" value="" style="line;strokeWidth=1;fillColor=none;align=left;verticalAlign=middle;spacingTop=-1;spacingLeft=3;spacingRight=3;rotatable=0;labelPosition=right;points=[];portConstraint=eastwest;" parent="R6EGx2aFgqs3BERjV3u7-412" vertex="1">
          <mxGeometry y="100" width="211" height="8" as="geometry" />
        </mxCell>
        <mxCell id="R6EGx2aFgqs3BERjV3u7-419" value="togglePasswordVisibility()" style="text;html=1;strokeColor=none;fillColor=none;align=left;verticalAlign=middle;spacingLeft=4;spacingRight=4;overflow=hidden;rotatable=0;points=[[0,0.5],[1,0.5]];portConstraint=eastwest;whiteSpace=wrap;" parent="R6EGx2aFgqs3BERjV3u7-412" vertex="1">
          <mxGeometry y="108" width="211" height="20" as="geometry" />
        </mxCell>
        <mxCell id="R6EGx2aFgqs3BERjV3u7-423" value="login()" style="text;html=1;strokeColor=none;fillColor=none;align=left;verticalAlign=middle;spacingLeft=4;spacingRight=4;overflow=hidden;rotatable=0;points=[[0,0.5],[1,0.5]];portConstraint=eastwest;whiteSpace=wrap;" parent="R6EGx2aFgqs3BERjV3u7-412" vertex="1">
          <mxGeometry y="128" width="211" height="20" as="geometry" />
        </mxCell>
        <mxCell id="R6EGx2aFgqs3BERjV3u7-424" value="signup()" style="text;html=1;strokeColor=none;fillColor=none;align=left;verticalAlign=middle;spacingLeft=4;spacingRight=4;overflow=hidden;rotatable=0;points=[[0,0.5],[1,0.5]];portConstraint=eastwest;whiteSpace=wrap;" parent="R6EGx2aFgqs3BERjV3u7-412" vertex="1">
          <mxGeometry y="148" width="211" height="20" as="geometry" />
        </mxCell>
        <mxCell id="o4Cxym-x1egPijltB6lR-9" value="&amp;lt;&amp;lt;interface&amp;gt;&amp;gt;&lt;br&gt;&lt;b&gt;SignupViewModel&lt;/b&gt;" style="swimlane;fontStyle=0;align=center;verticalAlign=top;childLayout=stackLayout;horizontal=1;startSize=40;horizontalStack=0;resizeParent=1;resizeParentMax=0;resizeLast=0;collapsible=0;marginBottom=0;html=1;whiteSpace=wrap;" parent="1" vertex="1">
          <mxGeometry x="586" y="941" width="210" height="188" as="geometry" />
        </mxCell>
        <mxCell id="o4Cxym-x1egPijltB6lR-10" value="email: FormControl&amp;lt;string&amp;gt;" style="text;html=1;strokeColor=none;fillColor=none;align=left;verticalAlign=middle;spacingLeft=4;spacingRight=4;overflow=hidden;rotatable=0;points=[[0,0.5],[1,0.5]];portConstraint=eastwest;whiteSpace=wrap;" parent="o4Cxym-x1egPijltB6lR-9" vertex="1">
          <mxGeometry y="40" width="210" height="20" as="geometry" />
        </mxCell>
        <mxCell id="o4Cxym-x1egPijltB6lR-17" value="username: FormControl&amp;lt;string&amp;gt;" style="text;html=1;strokeColor=none;fillColor=none;align=left;verticalAlign=middle;spacingLeft=4;spacingRight=4;overflow=hidden;rotatable=0;points=[[0,0.5],[1,0.5]];portConstraint=eastwest;whiteSpace=wrap;" parent="o4Cxym-x1egPijltB6lR-9" vertex="1">
          <mxGeometry y="60" width="210" height="20" as="geometry" />
        </mxCell>
        <mxCell id="o4Cxym-x1egPijltB6lR-11" value="password: FormControl&amp;lt;string&amp;gt;" style="text;html=1;strokeColor=none;fillColor=none;align=left;verticalAlign=middle;spacingLeft=4;spacingRight=4;overflow=hidden;rotatable=0;points=[[0,0.5],[1,0.5]];portConstraint=eastwest;whiteSpace=wrap;" parent="o4Cxym-x1egPijltB6lR-9" vertex="1">
          <mxGeometry y="80" width="210" height="20" as="geometry" />
        </mxCell>
        <mxCell id="o4Cxym-x1egPijltB6lR-12" value="passwordVisible: Signal&amp;lt;boolean&amp;gt;" style="text;html=1;strokeColor=none;fillColor=none;align=left;verticalAlign=middle;spacingLeft=4;spacingRight=4;overflow=hidden;rotatable=0;points=[[0,0.5],[1,0.5]];portConstraint=eastwest;whiteSpace=wrap;" parent="o4Cxym-x1egPijltB6lR-9" vertex="1">
          <mxGeometry y="100" width="210" height="20" as="geometry" />
        </mxCell>
        <mxCell id="o4Cxym-x1egPijltB6lR-13" value="" style="line;strokeWidth=1;fillColor=none;align=left;verticalAlign=middle;spacingTop=-1;spacingLeft=3;spacingRight=3;rotatable=0;labelPosition=right;points=[];portConstraint=eastwest;" parent="o4Cxym-x1egPijltB6lR-9" vertex="1">
          <mxGeometry y="120" width="210" height="8" as="geometry" />
        </mxCell>
        <mxCell id="o4Cxym-x1egPijltB6lR-14" value="togglePasswordVisibility()" style="text;html=1;strokeColor=none;fillColor=none;align=left;verticalAlign=middle;spacingLeft=4;spacingRight=4;overflow=hidden;rotatable=0;points=[[0,0.5],[1,0.5]];portConstraint=eastwest;whiteSpace=wrap;" parent="o4Cxym-x1egPijltB6lR-9" vertex="1">
          <mxGeometry y="128" width="210" height="20" as="geometry" />
        </mxCell>
        <mxCell id="o4Cxym-x1egPijltB6lR-15" value="login()" style="text;html=1;strokeColor=none;fillColor=none;align=left;verticalAlign=middle;spacingLeft=4;spacingRight=4;overflow=hidden;rotatable=0;points=[[0,0.5],[1,0.5]];portConstraint=eastwest;whiteSpace=wrap;" parent="o4Cxym-x1egPijltB6lR-9" vertex="1">
          <mxGeometry y="148" width="210" height="20" as="geometry" />
        </mxCell>
        <mxCell id="o4Cxym-x1egPijltB6lR-16" value="signup()" style="text;html=1;strokeColor=none;fillColor=none;align=left;verticalAlign=middle;spacingLeft=4;spacingRight=4;overflow=hidden;rotatable=0;points=[[0,0.5],[1,0.5]];portConstraint=eastwest;whiteSpace=wrap;" parent="o4Cxym-x1egPijltB6lR-9" vertex="1">
          <mxGeometry y="168" width="210" height="20" as="geometry" />
        </mxCell>
        <mxCell id="o4Cxym-x1egPijltB6lR-58" value="&amp;lt;&amp;lt;interface&amp;gt;&amp;gt;&lt;br&gt;&lt;b&gt;AccountViewModel&lt;/b&gt;" style="swimlane;fontStyle=0;align=center;verticalAlign=top;childLayout=stackLayout;horizontal=1;startSize=40;horizontalStack=0;resizeParent=1;resizeParentMax=0;resizeLast=0;collapsible=0;marginBottom=0;html=1;whiteSpace=wrap;" parent="1" vertex="1">
          <mxGeometry x="315" y="815" width="242" height="168" as="geometry" />
        </mxCell>
        <mxCell id="o4Cxym-x1egPijltB6lR-62" value="account: Signal&amp;lt;Account | Loading | null&amp;gt;" style="text;html=1;strokeColor=none;fillColor=none;align=left;verticalAlign=middle;spacingLeft=4;spacingRight=4;overflow=hidden;rotatable=0;points=[[0,0.5],[1,0.5]];portConstraint=eastwest;whiteSpace=wrap;" parent="o4Cxym-x1egPijltB6lR-58" vertex="1">
          <mxGeometry y="40" width="242" height="20" as="geometry" />
        </mxCell>
        <mxCell id="o4Cxym-x1egPijltB6lR-69" value="colorPickerVisible: Signal&amp;lt;boolean&amp;gt;" style="text;html=1;strokeColor=none;fillColor=none;align=left;verticalAlign=middle;spacingLeft=4;spacingRight=4;overflow=hidden;rotatable=0;points=[[0,0.5],[1,0.5]];portConstraint=eastwest;whiteSpace=wrap;" parent="o4Cxym-x1egPijltB6lR-58" vertex="1">
          <mxGeometry y="60" width="242" height="20" as="geometry" />
        </mxCell>
        <mxCell id="o4Cxym-x1egPijltB6lR-63" value="" style="line;strokeWidth=1;fillColor=none;align=left;verticalAlign=middle;spacingTop=-1;spacingLeft=3;spacingRight=3;rotatable=0;labelPosition=right;points=[];portConstraint=eastwest;" parent="o4Cxym-x1egPijltB6lR-58" vertex="1">
          <mxGeometry y="80" width="242" height="8" as="geometry" />
        </mxCell>
        <mxCell id="o4Cxym-x1egPijltB6lR-66" value="requestVerification()" style="text;html=1;strokeColor=none;fillColor=none;align=left;verticalAlign=middle;spacingLeft=4;spacingRight=4;overflow=hidden;rotatable=0;points=[[0,0.5],[1,0.5]];portConstraint=eastwest;whiteSpace=wrap;" parent="o4Cxym-x1egPijltB6lR-58" vertex="1">
          <mxGeometry y="88" width="242" height="20" as="geometry" />
        </mxCell>
        <mxCell id="o4Cxym-x1egPijltB6lR-67" value="saveChanges()" style="text;html=1;strokeColor=none;fillColor=none;align=left;verticalAlign=middle;spacingLeft=4;spacingRight=4;overflow=hidden;rotatable=0;points=[[0,0.5],[1,0.5]];portConstraint=eastwest;whiteSpace=wrap;" parent="o4Cxym-x1egPijltB6lR-58" vertex="1">
          <mxGeometry y="108" width="242" height="20" as="geometry" />
        </mxCell>
        <mxCell id="o4Cxym-x1egPijltB6lR-68" value="logout()" style="text;html=1;strokeColor=none;fillColor=none;align=left;verticalAlign=middle;spacingLeft=4;spacingRight=4;overflow=hidden;rotatable=0;points=[[0,0.5],[1,0.5]];portConstraint=eastwest;whiteSpace=wrap;" parent="o4Cxym-x1egPijltB6lR-58" vertex="1">
          <mxGeometry y="128" width="242" height="20" as="geometry" />
        </mxCell>
        <mxCell id="o4Cxym-x1egPijltB6lR-71" value="toggleColorPickerVisibility()" style="text;html=1;strokeColor=none;fillColor=none;align=left;verticalAlign=middle;spacingLeft=4;spacingRight=4;overflow=hidden;rotatable=0;points=[[0,0.5],[1,0.5]];portConstraint=eastwest;whiteSpace=wrap;" parent="o4Cxym-x1egPijltB6lR-58" vertex="1">
          <mxGeometry y="148" width="242" height="20" as="geometry" />
        </mxCell>
        <mxCell id="o4Cxym-x1egPijltB6lR-72" value="&amp;lt;&amp;lt;interface&amp;gt;&amp;gt;&lt;br&gt;&lt;b&gt;ServerConfigViewModel&lt;/b&gt;" style="swimlane;fontStyle=0;align=center;verticalAlign=top;childLayout=stackLayout;horizontal=1;startSize=40;horizontalStack=0;resizeParent=1;resizeParentMax=0;resizeLast=0;collapsible=0;marginBottom=0;html=1;whiteSpace=wrap;" parent="1" vertex="1">
          <mxGeometry width="296" height="388" as="geometry" />
        </mxCell>
        <mxCell id="o4Cxym-x1egPijltB6lR-74" value="username: FormControl&amp;lt;string&amp;gt;" style="text;html=1;strokeColor=none;fillColor=none;align=left;verticalAlign=middle;spacingLeft=4;spacingRight=4;overflow=hidden;rotatable=0;points=[[0,0.5],[1,0.5]];portConstraint=eastwest;whiteSpace=wrap;" parent="o4Cxym-x1egPijltB6lR-72" vertex="1">
          <mxGeometry y="40" width="296" height="20" as="geometry" />
        </mxCell>
        <mxCell id="o4Cxym-x1egPijltB6lR-80" value="email: FormControl&amp;lt;string&amp;gt;" style="text;html=1;strokeColor=none;fillColor=none;align=left;verticalAlign=middle;spacingLeft=4;spacingRight=4;overflow=hidden;rotatable=0;points=[[0,0.5],[1,0.5]];portConstraint=eastwest;whiteSpace=wrap;" parent="o4Cxym-x1egPijltB6lR-72" vertex="1">
          <mxGeometry y="60" width="296" height="20" as="geometry" />
        </mxCell>
        <mxCell id="o4Cxym-x1egPijltB6lR-81" value="password: FormControl&amp;lt;string&amp;gt;" style="text;html=1;strokeColor=none;fillColor=none;align=left;verticalAlign=middle;spacingLeft=4;spacingRight=4;overflow=hidden;rotatable=0;points=[[0,0.5],[1,0.5]];portConstraint=eastwest;whiteSpace=wrap;" parent="o4Cxym-x1egPijltB6lR-72" vertex="1">
          <mxGeometry y="80" width="296" height="20" as="geometry" />
        </mxCell>
        <mxCell id="o4Cxym-x1egPijltB6lR-82" value="createReplicGroup: FormControl&amp;lt;AuthUserGroup&amp;gt;" style="text;html=1;strokeColor=none;fillColor=none;align=left;verticalAlign=middle;spacingLeft=4;spacingRight=4;overflow=hidden;rotatable=0;points=[[0,0.5],[1,0.5]];portConstraint=eastwest;whiteSpace=wrap;" parent="o4Cxym-x1egPijltB6lR-72" vertex="1">
          <mxGeometry y="100" width="296" height="20" as="geometry" />
        </mxCell>
        <mxCell id="o4Cxym-x1egPijltB6lR-84" value="accessReplicGroup: FormControl&amp;lt;AuthUserGroup&amp;gt;" style="text;html=1;strokeColor=none;fillColor=none;align=left;verticalAlign=middle;spacingLeft=4;spacingRight=4;overflow=hidden;rotatable=0;points=[[0,0.5],[1,0.5]];portConstraint=eastwest;whiteSpace=wrap;" parent="o4Cxym-x1egPijltB6lR-72" vertex="1">
          <mxGeometry y="120" width="296" height="20" as="geometry" />
        </mxCell>
        <mxCell id="o4Cxym-x1egPijltB6lR-83" value="requireExpiration: FormControl&amp;lt;boolean&amp;gt;" style="text;html=1;strokeColor=none;fillColor=none;align=left;verticalAlign=middle;spacingLeft=4;spacingRight=4;overflow=hidden;rotatable=0;points=[[0,0.5],[1,0.5]];portConstraint=eastwest;whiteSpace=wrap;" parent="o4Cxym-x1egPijltB6lR-72" vertex="1">
          <mxGeometry y="140" width="296" height="20" as="geometry" />
        </mxCell>
        <mxCell id="o4Cxym-x1egPijltB6lR-87" value="expirationAmount: FormControl&amp;lt;number&amp;gt;" style="text;html=1;strokeColor=none;fillColor=none;align=left;verticalAlign=middle;spacingLeft=4;spacingRight=4;overflow=hidden;rotatable=0;points=[[0,0.5],[1,0.5]];portConstraint=eastwest;whiteSpace=wrap;" parent="o4Cxym-x1egPijltB6lR-72" vertex="1">
          <mxGeometry y="160" width="296" height="20" as="geometry" />
        </mxCell>
        <mxCell id="o4Cxym-x1egPijltB6lR-86" value="expirationUnit: FormControl&amp;lt;PeriodUnit&amp;gt;" style="text;html=1;strokeColor=none;fillColor=none;align=left;verticalAlign=middle;spacingLeft=4;spacingRight=4;overflow=hidden;rotatable=0;points=[[0,0.5],[1,0.5]];portConstraint=eastwest;whiteSpace=wrap;" parent="o4Cxym-x1egPijltB6lR-72" vertex="1">
          <mxGeometry y="180" width="296" height="20" as="geometry" />
        </mxCell>
        <mxCell id="o4Cxym-x1egPijltB6lR-88" value="requireLimit: FormControl&amp;lt;boolean&amp;gt;" style="text;html=1;strokeColor=none;fillColor=none;align=left;verticalAlign=middle;spacingLeft=4;spacingRight=4;overflow=hidden;rotatable=0;points=[[0,0.5],[1,0.5]];portConstraint=eastwest;whiteSpace=wrap;" parent="o4Cxym-x1egPijltB6lR-72" vertex="1">
          <mxGeometry y="200" width="296" height="20" as="geometry" />
        </mxCell>
        <mxCell id="o4Cxym-x1egPijltB6lR-85" value="limitAmount: FormControl&amp;lt;number&amp;gt;" style="text;html=1;strokeColor=none;fillColor=none;align=left;verticalAlign=middle;spacingLeft=4;spacingRight=4;overflow=hidden;rotatable=0;points=[[0,0.5],[1,0.5]];portConstraint=eastwest;whiteSpace=wrap;" parent="o4Cxym-x1egPijltB6lR-72" vertex="1">
          <mxGeometry y="220" width="296" height="20" as="geometry" />
        </mxCell>
        <mxCell id="o4Cxym-x1egPijltB6lR-89" value="limitUnit: FormControl&amp;lt;PeriodUnit&amp;gt;" style="text;html=1;strokeColor=none;fillColor=none;align=left;verticalAlign=middle;spacingLeft=4;spacingRight=4;overflow=hidden;rotatable=0;points=[[0,0.5],[1,0.5]];portConstraint=eastwest;whiteSpace=wrap;" parent="o4Cxym-x1egPijltB6lR-72" vertex="1">
          <mxGeometry y="240" width="296" height="20" as="geometry" />
        </mxCell>
        <mxCell id="o4Cxym-x1egPijltB6lR-90" value="createReportGroup: FormControl&amp;lt;AuthUserGroup&amp;gt;" style="text;html=1;strokeColor=none;fillColor=none;align=left;verticalAlign=middle;spacingLeft=4;spacingRight=4;overflow=hidden;rotatable=0;points=[[0,0.5],[1,0.5]];portConstraint=eastwest;whiteSpace=wrap;" parent="o4Cxym-x1egPijltB6lR-72" vertex="1">
          <mxGeometry y="260" width="296" height="20" as="geometry" />
        </mxCell>
        <mxCell id="o4Cxym-x1egPijltB6lR-91" value="allowSignup: FormControl&amp;lt;boolean&amp;gt;" style="text;html=1;strokeColor=none;fillColor=none;align=left;verticalAlign=middle;spacingLeft=4;spacingRight=4;overflow=hidden;rotatable=0;points=[[0,0.5],[1,0.5]];portConstraint=eastwest;whiteSpace=wrap;" parent="o4Cxym-x1egPijltB6lR-72" vertex="1">
          <mxGeometry y="280" width="296" height="20" as="geometry" />
        </mxCell>
        <mxCell id="2sJ7Te5uf_ZWXptWmDKp-1" value="accountRequiresVerification: FormControl&amp;lt;boolean&amp;gt;" style="text;html=1;strokeColor=none;fillColor=none;align=left;verticalAlign=middle;spacingLeft=4;spacingRight=4;overflow=hidden;rotatable=0;points=[[0,0.5],[1,0.5]];portConstraint=eastwest;whiteSpace=wrap;" parent="o4Cxym-x1egPijltB6lR-72" vertex="1">
          <mxGeometry y="300" width="296" height="20" as="geometry" />
        </mxCell>
        <mxCell id="o4Cxym-x1egPijltB6lR-75" value="" style="line;strokeWidth=1;fillColor=none;align=left;verticalAlign=middle;spacingTop=-1;spacingLeft=3;spacingRight=3;rotatable=0;labelPosition=right;points=[];portConstraint=eastwest;" parent="o4Cxym-x1egPijltB6lR-72" vertex="1">
          <mxGeometry y="320" width="296" height="8" as="geometry" />
        </mxCell>
        <mxCell id="o4Cxym-x1egPijltB6lR-76" value="createAccount()" style="text;html=1;strokeColor=none;fillColor=none;align=left;verticalAlign=middle;spacingLeft=4;spacingRight=4;overflow=hidden;rotatable=0;points=[[0,0.5],[1,0.5]];portConstraint=eastwest;whiteSpace=wrap;" parent="o4Cxym-x1egPijltB6lR-72" vertex="1">
          <mxGeometry y="328" width="296" height="20" as="geometry" />
        </mxCell>
        <mxCell id="o4Cxym-x1egPijltB6lR-77" value="restart()" style="text;html=1;strokeColor=none;fillColor=none;align=left;verticalAlign=middle;spacingLeft=4;spacingRight=4;overflow=hidden;rotatable=0;points=[[0,0.5],[1,0.5]];portConstraint=eastwest;whiteSpace=wrap;" parent="o4Cxym-x1egPijltB6lR-72" vertex="1">
          <mxGeometry y="348" width="296" height="20" as="geometry" />
        </mxCell>
        <mxCell id="o4Cxym-x1egPijltB6lR-78" value="shutoff()" style="text;html=1;strokeColor=none;fillColor=none;align=left;verticalAlign=middle;spacingLeft=4;spacingRight=4;overflow=hidden;rotatable=0;points=[[0,0.5],[1,0.5]];portConstraint=eastwest;whiteSpace=wrap;" parent="o4Cxym-x1egPijltB6lR-72" vertex="1">
          <mxGeometry y="368" width="296" height="20" as="geometry" />
        </mxCell>
        <mxCell id="10" value="&amp;lt;&amp;lt;interface&amp;gt;&amp;gt;&lt;br&gt;&lt;b&gt;ReplicsViewModel&lt;/b&gt;" style="swimlane;fontStyle=0;align=center;verticalAlign=top;childLayout=stackLayout;horizontal=1;startSize=40;horizontalStack=0;resizeParent=1;resizeParentMax=0;resizeLast=0;collapsible=0;marginBottom=0;html=1;whiteSpace=wrap;" vertex="1" parent="1">
          <mxGeometry y="398" width="297" height="368" as="geometry" />
        </mxCell>
        <mxCell id="11" value="query: FormControl&amp;lt;string&amp;gt;" style="text;html=1;strokeColor=none;fillColor=none;align=left;verticalAlign=middle;spacingLeft=4;spacingRight=4;overflow=hidden;rotatable=0;points=[[0,0.5],[1,0.5]];portConstraint=eastwest;whiteSpace=wrap;" vertex="1" parent="10">
          <mxGeometry y="40" width="297" height="20" as="geometry" />
        </mxCell>
        <mxCell id="26" value="isAdmin: Signal&amp;lt;boolean&amp;gt;" style="text;html=1;strokeColor=none;fillColor=none;align=left;verticalAlign=middle;spacingLeft=4;spacingRight=4;overflow=hidden;rotatable=0;points=[[0,0.5],[1,0.5]];portConstraint=eastwest;whiteSpace=wrap;" vertex="1" parent="10">
          <mxGeometry y="60" width="297" height="20" as="geometry" />
        </mxCell>
        <mxCell id="12" value="statusFilter: FormControl&amp;lt;ReplicState[]&amp;gt;" style="text;html=1;strokeColor=none;fillColor=none;align=left;verticalAlign=middle;spacingLeft=4;spacingRight=4;overflow=hidden;rotatable=0;points=[[0,0.5],[1,0.5]];portConstraint=eastwest;whiteSpace=wrap;" vertex="1" parent="10">
          <mxGeometry y="80" width="297" height="20" as="geometry" />
        </mxCell>
        <mxCell id="28" value="userFilter: FormControl&amp;lt;Account&amp;gt;" style="text;html=1;strokeColor=none;fillColor=none;align=left;verticalAlign=middle;spacingLeft=4;spacingRight=4;overflow=hidden;rotatable=0;points=[[0,0.5],[1,0.5]];portConstraint=eastwest;whiteSpace=wrap;" vertex="1" parent="10">
          <mxGeometry y="100" width="297" height="20" as="geometry" />
        </mxCell>
        <mxCell id="29" value="userFilterOptions: FormControl&amp;lt;Account | Loading&amp;gt;" style="text;html=1;strokeColor=none;fillColor=none;align=left;verticalAlign=middle;spacingLeft=4;spacingRight=4;overflow=hidden;rotatable=0;points=[[0,0.5],[1,0.5]];portConstraint=eastwest;whiteSpace=wrap;" vertex="1" parent="10">
          <mxGeometry y="120" width="297" height="20" as="geometry" />
        </mxCell>
        <mxCell id="18" value="sortMode: FormControl&amp;lt;ReplicSortMode&amp;gt;" style="text;html=1;strokeColor=none;fillColor=none;align=left;verticalAlign=middle;spacingLeft=4;spacingRight=4;overflow=hidden;rotatable=0;points=[[0,0.5],[1,0.5]];portConstraint=eastwest;whiteSpace=wrap;" vertex="1" parent="10">
          <mxGeometry y="140" width="297" height="20" as="geometry" />
        </mxCell>
        <mxCell id="19" value="direction: FormControl&amp;lt;SortDirection&amp;gt;" style="text;html=1;strokeColor=none;fillColor=none;align=left;verticalAlign=middle;spacingLeft=4;spacingRight=4;overflow=hidden;rotatable=0;points=[[0,0.5],[1,0.5]];portConstraint=eastwest;whiteSpace=wrap;" vertex="1" parent="10">
          <mxGeometry y="160" width="297" height="20" as="geometry" />
        </mxCell>
        <mxCell id="20" value="configExpanded: FormControl&amp;lt;boolean&amp;gt;" style="text;html=1;strokeColor=none;fillColor=none;align=left;verticalAlign=middle;spacingLeft=4;spacingRight=4;overflow=hidden;rotatable=0;points=[[0,0.5],[1,0.5]];portConstraint=eastwest;whiteSpace=wrap;" vertex="1" parent="10">
          <mxGeometry y="180" width="297" height="20" as="geometry" />
        </mxCell>
        <mxCell id="21" value="replics: Signal&amp;lt;Replic[] | Loading&amp;gt;" style="text;html=1;strokeColor=none;fillColor=none;align=left;verticalAlign=middle;spacingLeft=4;spacingRight=4;overflow=hidden;rotatable=0;points=[[0,0.5],[1,0.5]];portConstraint=eastwest;whiteSpace=wrap;" vertex="1" parent="10">
          <mxGeometry y="200" width="297" height="20" as="geometry" />
        </mxCell>
        <mxCell id="23" value="selectedIds: Signal&amp;lt;string[]&amp;gt;" style="text;html=1;strokeColor=none;fillColor=none;align=left;verticalAlign=middle;spacingLeft=4;spacingRight=4;overflow=hidden;rotatable=0;points=[[0,0.5],[1,0.5]];portConstraint=eastwest;whiteSpace=wrap;" vertex="1" parent="10">
          <mxGeometry y="220" width="297" height="20" as="geometry" />
        </mxCell>
        <mxCell id="13" value="" style="line;strokeWidth=1;fillColor=none;align=left;verticalAlign=middle;spacingTop=-1;spacingLeft=3;spacingRight=3;rotatable=0;labelPosition=right;points=[];portConstraint=eastwest;" vertex="1" parent="10">
          <mxGeometry y="240" width="297" height="8" as="geometry" />
        </mxCell>
        <mxCell id="14" value="search()" style="text;html=1;strokeColor=none;fillColor=none;align=left;verticalAlign=middle;spacingLeft=4;spacingRight=4;overflow=hidden;rotatable=0;points=[[0,0.5],[1,0.5]];portConstraint=eastwest;whiteSpace=wrap;" vertex="1" parent="10">
          <mxGeometry y="248" width="297" height="20" as="geometry" />
        </mxCell>
        <mxCell id="15" value="toggleConfigVisibility()" style="text;html=1;strokeColor=none;fillColor=none;align=left;verticalAlign=middle;spacingLeft=4;spacingRight=4;overflow=hidden;rotatable=0;points=[[0,0.5],[1,0.5]];portConstraint=eastwest;whiteSpace=wrap;" vertex="1" parent="10">
          <mxGeometry y="268" width="297" height="20" as="geometry" />
        </mxCell>
        <mxCell id="25" value="expand(Replic)" style="text;html=1;strokeColor=none;fillColor=none;align=left;verticalAlign=middle;spacingLeft=4;spacingRight=4;overflow=hidden;rotatable=0;points=[[0,0.5],[1,0.5]];portConstraint=eastwest;whiteSpace=wrap;" vertex="1" parent="10">
          <mxGeometry y="288" width="297" height="20" as="geometry" />
        </mxCell>
        <mxCell id="16" value="updateState(Replic, ReplicState)" style="text;html=1;strokeColor=none;fillColor=none;align=left;verticalAlign=middle;spacingLeft=4;spacingRight=4;overflow=hidden;rotatable=0;points=[[0,0.5],[1,0.5]];portConstraint=eastwest;whiteSpace=wrap;" vertex="1" parent="10">
          <mxGeometry y="308" width="297" height="20" as="geometry" />
        </mxCell>
        <mxCell id="17" value="viewContent(Replic)" style="text;html=1;strokeColor=none;fillColor=none;align=left;verticalAlign=middle;spacingLeft=4;spacingRight=4;overflow=hidden;rotatable=0;points=[[0,0.5],[1,0.5]];portConstraint=eastwest;whiteSpace=wrap;" vertex="1" parent="10">
          <mxGeometry y="328" width="297" height="20" as="geometry" />
        </mxCell>
        <mxCell id="24" value="viewInfo(Replic)" style="text;html=1;strokeColor=none;fillColor=none;align=left;verticalAlign=middle;spacingLeft=4;spacingRight=4;overflow=hidden;rotatable=0;points=[[0,0.5],[1,0.5]];portConstraint=eastwest;whiteSpace=wrap;" vertex="1" parent="10">
          <mxGeometry y="348" width="297" height="20" as="geometry" />
        </mxCell>
        <mxCell id="30" value="&amp;lt;&amp;lt;interface&amp;gt;&amp;gt;&lt;br&gt;&lt;b&gt;AccountsViewModel&lt;/b&gt;" style="swimlane;fontStyle=0;align=center;verticalAlign=top;childLayout=stackLayout;horizontal=1;startSize=40;horizontalStack=0;resizeParent=1;resizeParentMax=0;resizeLast=0;collapsible=0;marginBottom=0;html=1;whiteSpace=wrap;" vertex="1" parent="1">
          <mxGeometry y="783" width="297" height="288" as="geometry" />
        </mxCell>
        <mxCell id="31" value="query: FormControl&amp;lt;string&amp;gt;" style="text;html=1;strokeColor=none;fillColor=none;align=left;verticalAlign=middle;spacingLeft=4;spacingRight=4;overflow=hidden;rotatable=0;points=[[0,0.5],[1,0.5]];portConstraint=eastwest;whiteSpace=wrap;" vertex="1" parent="30">
          <mxGeometry y="40" width="297" height="20" as="geometry" />
        </mxCell>
        <mxCell id="33" value="statusFilter: FormControl&amp;lt;AccountState[]&amp;gt;" style="text;html=1;strokeColor=none;fillColor=none;align=left;verticalAlign=middle;spacingLeft=4;spacingRight=4;overflow=hidden;rotatable=0;points=[[0,0.5],[1,0.5]];portConstraint=eastwest;whiteSpace=wrap;" vertex="1" parent="30">
          <mxGeometry y="60" width="297" height="20" as="geometry" />
        </mxCell>
        <mxCell id="36" value="sortMode: FormControl&amp;lt;AccountSortMode&amp;gt;" style="text;html=1;strokeColor=none;fillColor=none;align=left;verticalAlign=middle;spacingLeft=4;spacingRight=4;overflow=hidden;rotatable=0;points=[[0,0.5],[1,0.5]];portConstraint=eastwest;whiteSpace=wrap;" vertex="1" parent="30">
          <mxGeometry y="80" width="297" height="20" as="geometry" />
        </mxCell>
        <mxCell id="37" value="direction: FormControl&amp;lt;SortDirection&amp;gt;" style="text;html=1;strokeColor=none;fillColor=none;align=left;verticalAlign=middle;spacingLeft=4;spacingRight=4;overflow=hidden;rotatable=0;points=[[0,0.5],[1,0.5]];portConstraint=eastwest;whiteSpace=wrap;" vertex="1" parent="30">
          <mxGeometry y="100" width="297" height="20" as="geometry" />
        </mxCell>
        <mxCell id="38" value="configExpanded: FormControl&amp;lt;boolean&amp;gt;" style="text;html=1;strokeColor=none;fillColor=none;align=left;verticalAlign=middle;spacingLeft=4;spacingRight=4;overflow=hidden;rotatable=0;points=[[0,0.5],[1,0.5]];portConstraint=eastwest;whiteSpace=wrap;" vertex="1" parent="30">
          <mxGeometry y="120" width="297" height="20" as="geometry" />
        </mxCell>
        <mxCell id="39" value="accounts: Signal&amp;lt;Account[] | Loading&amp;gt;" style="text;html=1;strokeColor=none;fillColor=none;align=left;verticalAlign=middle;spacingLeft=4;spacingRight=4;overflow=hidden;rotatable=0;points=[[0,0.5],[1,0.5]];portConstraint=eastwest;whiteSpace=wrap;" vertex="1" parent="30">
          <mxGeometry y="140" width="297" height="20" as="geometry" />
        </mxCell>
        <mxCell id="40" value="selectedIds: Signal&amp;lt;string[]&amp;gt;" style="text;html=1;strokeColor=none;fillColor=none;align=left;verticalAlign=middle;spacingLeft=4;spacingRight=4;overflow=hidden;rotatable=0;points=[[0,0.5],[1,0.5]];portConstraint=eastwest;whiteSpace=wrap;" vertex="1" parent="30">
          <mxGeometry y="160" width="297" height="20" as="geometry" />
        </mxCell>
        <mxCell id="41" value="" style="line;strokeWidth=1;fillColor=none;align=left;verticalAlign=middle;spacingTop=-1;spacingLeft=3;spacingRight=3;rotatable=0;labelPosition=right;points=[];portConstraint=eastwest;" vertex="1" parent="30">
          <mxGeometry y="180" width="297" height="8" as="geometry" />
        </mxCell>
        <mxCell id="42" value="search()" style="text;html=1;strokeColor=none;fillColor=none;align=left;verticalAlign=middle;spacingLeft=4;spacingRight=4;overflow=hidden;rotatable=0;points=[[0,0.5],[1,0.5]];portConstraint=eastwest;whiteSpace=wrap;" vertex="1" parent="30">
          <mxGeometry y="188" width="297" height="20" as="geometry" />
        </mxCell>
        <mxCell id="43" value="toggleConfigVisibility()" style="text;html=1;strokeColor=none;fillColor=none;align=left;verticalAlign=middle;spacingLeft=4;spacingRight=4;overflow=hidden;rotatable=0;points=[[0,0.5],[1,0.5]];portConstraint=eastwest;whiteSpace=wrap;" vertex="1" parent="30">
          <mxGeometry y="208" width="297" height="20" as="geometry" />
        </mxCell>
        <mxCell id="44" value="expand(Account)" style="text;html=1;strokeColor=none;fillColor=none;align=left;verticalAlign=middle;spacingLeft=4;spacingRight=4;overflow=hidden;rotatable=0;points=[[0,0.5],[1,0.5]];portConstraint=eastwest;whiteSpace=wrap;" vertex="1" parent="30">
          <mxGeometry y="228" width="297" height="20" as="geometry" />
        </mxCell>
        <mxCell id="45" value="updateState(Account, AccountState)" style="text;html=1;strokeColor=none;fillColor=none;align=left;verticalAlign=middle;spacingLeft=4;spacingRight=4;overflow=hidden;rotatable=0;points=[[0,0.5],[1,0.5]];portConstraint=eastwest;whiteSpace=wrap;" vertex="1" parent="30">
          <mxGeometry y="248" width="297" height="20" as="geometry" />
        </mxCell>
        <mxCell id="46" value="changePassword(Account)" style="text;html=1;strokeColor=none;fillColor=none;align=left;verticalAlign=middle;spacingLeft=4;spacingRight=4;overflow=hidden;rotatable=0;points=[[0,0.5],[1,0.5]];portConstraint=eastwest;whiteSpace=wrap;" vertex="1" parent="30">
          <mxGeometry y="268" width="297" height="20" as="geometry" />
        </mxCell>
        <mxCell id="48" value="&amp;lt;&amp;lt;interface&amp;gt;&amp;gt;&lt;br&gt;&lt;b&gt;ReportsViewModel&lt;/b&gt;" style="swimlane;fontStyle=0;align=center;verticalAlign=top;childLayout=stackLayout;horizontal=1;startSize=40;horizontalStack=0;resizeParent=1;resizeParentMax=0;resizeLast=0;collapsible=0;marginBottom=0;html=1;whiteSpace=wrap;" vertex="1" parent="1">
          <mxGeometry x="315" width="297" height="288" as="geometry" />
        </mxCell>
        <mxCell id="49" value="query: FormControl&amp;lt;string&amp;gt;" style="text;html=1;strokeColor=none;fillColor=none;align=left;verticalAlign=middle;spacingLeft=4;spacingRight=4;overflow=hidden;rotatable=0;points=[[0,0.5],[1,0.5]];portConstraint=eastwest;whiteSpace=wrap;" vertex="1" parent="48">
          <mxGeometry y="40" width="297" height="20" as="geometry" />
        </mxCell>
        <mxCell id="51" value="sortMode: FormControl&amp;lt;ReportSortMode&amp;gt;" style="text;html=1;strokeColor=none;fillColor=none;align=left;verticalAlign=middle;spacingLeft=4;spacingRight=4;overflow=hidden;rotatable=0;points=[[0,0.5],[1,0.5]];portConstraint=eastwest;whiteSpace=wrap;" vertex="1" parent="48">
          <mxGeometry y="60" width="297" height="20" as="geometry" />
        </mxCell>
        <mxCell id="52" value="direction: FormControl&amp;lt;SortDirection&amp;gt;" style="text;html=1;strokeColor=none;fillColor=none;align=left;verticalAlign=middle;spacingLeft=4;spacingRight=4;overflow=hidden;rotatable=0;points=[[0,0.5],[1,0.5]];portConstraint=eastwest;whiteSpace=wrap;" vertex="1" parent="48">
          <mxGeometry y="80" width="297" height="20" as="geometry" />
        </mxCell>
        <mxCell id="53" value="configExpanded: FormControl&amp;lt;boolean&amp;gt;" style="text;html=1;strokeColor=none;fillColor=none;align=left;verticalAlign=middle;spacingLeft=4;spacingRight=4;overflow=hidden;rotatable=0;points=[[0,0.5],[1,0.5]];portConstraint=eastwest;whiteSpace=wrap;" vertex="1" parent="48">
          <mxGeometry y="100" width="297" height="20" as="geometry" />
        </mxCell>
        <mxCell id="54" value="reports: Signal&amp;lt;Report[] | Loading&amp;gt;" style="text;html=1;strokeColor=none;fillColor=none;align=left;verticalAlign=middle;spacingLeft=4;spacingRight=4;overflow=hidden;rotatable=0;points=[[0,0.5],[1,0.5]];portConstraint=eastwest;whiteSpace=wrap;" vertex="1" parent="48">
          <mxGeometry y="120" width="297" height="20" as="geometry" />
        </mxCell>
        <mxCell id="55" value="selectedIds: Signal&amp;lt;string[]&amp;gt;" style="text;html=1;strokeColor=none;fillColor=none;align=left;verticalAlign=middle;spacingLeft=4;spacingRight=4;overflow=hidden;rotatable=0;points=[[0,0.5],[1,0.5]];portConstraint=eastwest;whiteSpace=wrap;" vertex="1" parent="48">
          <mxGeometry y="140" width="297" height="20" as="geometry" />
        </mxCell>
        <mxCell id="56" value="" style="line;strokeWidth=1;fillColor=none;align=left;verticalAlign=middle;spacingTop=-1;spacingLeft=3;spacingRight=3;rotatable=0;labelPosition=right;points=[];portConstraint=eastwest;" vertex="1" parent="48">
          <mxGeometry y="160" width="297" height="8" as="geometry" />
        </mxCell>
        <mxCell id="57" value="search()" style="text;html=1;strokeColor=none;fillColor=none;align=left;verticalAlign=middle;spacingLeft=4;spacingRight=4;overflow=hidden;rotatable=0;points=[[0,0.5],[1,0.5]];portConstraint=eastwest;whiteSpace=wrap;" vertex="1" parent="48">
          <mxGeometry y="168" width="297" height="20" as="geometry" />
        </mxCell>
        <mxCell id="58" value="toggleConfigVisibility()" style="text;html=1;strokeColor=none;fillColor=none;align=left;verticalAlign=middle;spacingLeft=4;spacingRight=4;overflow=hidden;rotatable=0;points=[[0,0.5],[1,0.5]];portConstraint=eastwest;whiteSpace=wrap;" vertex="1" parent="48">
          <mxGeometry y="188" width="297" height="20" as="geometry" />
        </mxCell>
        <mxCell id="59" value="expand(Report)" style="text;html=1;strokeColor=none;fillColor=none;align=left;verticalAlign=middle;spacingLeft=4;spacingRight=4;overflow=hidden;rotatable=0;points=[[0,0.5],[1,0.5]];portConstraint=eastwest;whiteSpace=wrap;" vertex="1" parent="48">
          <mxGeometry y="208" width="297" height="20" as="geometry" />
        </mxCell>
        <mxCell id="60" value="confirm(Report)" style="text;html=1;strokeColor=none;fillColor=none;align=left;verticalAlign=middle;spacingLeft=4;spacingRight=4;overflow=hidden;rotatable=0;points=[[0,0.5],[1,0.5]];portConstraint=eastwest;whiteSpace=wrap;" vertex="1" parent="48">
          <mxGeometry y="228" width="297" height="20" as="geometry" />
        </mxCell>
        <mxCell id="61" value="close(Report)" style="text;html=1;strokeColor=none;fillColor=none;align=left;verticalAlign=middle;spacingLeft=4;spacingRight=4;overflow=hidden;rotatable=0;points=[[0,0.5],[1,0.5]];portConstraint=eastwest;whiteSpace=wrap;" vertex="1" parent="48">
          <mxGeometry y="248" width="297" height="20" as="geometry" />
        </mxCell>
        <mxCell id="62" value="viewReplic(Report)" style="text;html=1;strokeColor=none;fillColor=none;align=left;verticalAlign=middle;spacingLeft=4;spacingRight=4;overflow=hidden;rotatable=0;points=[[0,0.5],[1,0.5]];portConstraint=eastwest;whiteSpace=wrap;" vertex="1" parent="48">
          <mxGeometry y="268" width="297" height="20" as="geometry" />
        </mxCell>
        <mxCell id="63" value="&amp;lt;&amp;lt;interface&amp;gt;&amp;gt;&lt;br&gt;&lt;b&gt;ActiveReplicViewModel&lt;/b&gt;" style="swimlane;fontStyle=0;align=center;verticalAlign=top;childLayout=stackLayout;horizontal=1;startSize=40;horizontalStack=0;resizeParent=1;resizeParentMax=0;resizeLast=0;collapsible=0;marginBottom=0;html=1;whiteSpace=wrap;" vertex="1" parent="1">
          <mxGeometry x="315" y="303" width="297" height="228" as="geometry" />
        </mxCell>
        <mxCell id="64" value="replic: Signal&amp;lt;Replic | Loading | null&amp;gt;" style="text;html=1;strokeColor=none;fillColor=none;align=left;verticalAlign=middle;spacingLeft=4;spacingRight=4;overflow=hidden;rotatable=0;points=[[0,0.5],[1,0.5]];portConstraint=eastwest;whiteSpace=wrap;" vertex="1" parent="63">
          <mxGeometry y="40" width="297" height="20" as="geometry" />
        </mxCell>
        <mxCell id="65" value="owner: Signal&amp;lt;PartialAccount | Loading | null&amp;gt;" style="text;html=1;strokeColor=none;fillColor=none;align=left;verticalAlign=middle;spacingLeft=4;spacingRight=4;overflow=hidden;rotatable=0;points=[[0,0.5],[1,0.5]];portConstraint=eastwest;whiteSpace=wrap;" vertex="1" parent="63">
          <mxGeometry y="60" width="297" height="20" as="geometry" />
        </mxCell>
        <mxCell id="66" value="isAdmin: Signal&amp;lt;boolean | Loading&amp;gt;" style="text;html=1;strokeColor=none;fillColor=none;align=left;verticalAlign=middle;spacingLeft=4;spacingRight=4;overflow=hidden;rotatable=0;points=[[0,0.5],[1,0.5]];portConstraint=eastwest;whiteSpace=wrap;" vertex="1" parent="63">
          <mxGeometry y="80" width="297" height="20" as="geometry" />
        </mxCell>
        <mxCell id="67" value="isOwner: Signal&amp;lt;boolean | Loading&amp;gt;" style="text;html=1;strokeColor=none;fillColor=none;align=left;verticalAlign=middle;spacingLeft=4;spacingRight=4;overflow=hidden;rotatable=0;points=[[0,0.5],[1,0.5]];portConstraint=eastwest;whiteSpace=wrap;" vertex="1" parent="63">
          <mxGeometry y="100" width="297" height="20" as="geometry" />
        </mxCell>
        <mxCell id="68" value="canBeReported: Signal&amp;lt;boolean | loading&amp;gt;" style="text;html=1;strokeColor=none;fillColor=none;align=left;verticalAlign=middle;spacingLeft=4;spacingRight=4;overflow=hidden;rotatable=0;points=[[0,0.5],[1,0.5]];portConstraint=eastwest;whiteSpace=wrap;" vertex="1" parent="63">
          <mxGeometry y="120" width="297" height="20" as="geometry" />
        </mxCell>
        <mxCell id="70" value="" style="line;strokeWidth=1;fillColor=none;align=left;verticalAlign=middle;spacingTop=-1;spacingLeft=3;spacingRight=3;rotatable=0;labelPosition=right;points=[];portConstraint=eastwest;" vertex="1" parent="63">
          <mxGeometry y="140" width="297" height="8" as="geometry" />
        </mxCell>
        <mxCell id="71" value="viewContent()" style="text;html=1;strokeColor=none;fillColor=none;align=left;verticalAlign=middle;spacingLeft=4;spacingRight=4;overflow=hidden;rotatable=0;points=[[0,0.5],[1,0.5]];portConstraint=eastwest;whiteSpace=wrap;" vertex="1" parent="63">
          <mxGeometry y="148" width="297" height="20" as="geometry" />
        </mxCell>
        <mxCell id="72" value="report()" style="text;html=1;strokeColor=none;fillColor=none;align=left;verticalAlign=middle;spacingLeft=4;spacingRight=4;overflow=hidden;rotatable=0;points=[[0,0.5],[1,0.5]];portConstraint=eastwest;whiteSpace=wrap;" vertex="1" parent="63">
          <mxGeometry y="168" width="297" height="20" as="geometry" />
        </mxCell>
        <mxCell id="73" value="toggleActiveState()" style="text;html=1;strokeColor=none;fillColor=none;align=left;verticalAlign=middle;spacingLeft=4;spacingRight=4;overflow=hidden;rotatable=0;points=[[0,0.5],[1,0.5]];portConstraint=eastwest;whiteSpace=wrap;" vertex="1" parent="63">
          <mxGeometry y="188" width="297" height="20" as="geometry" />
        </mxCell>
        <mxCell id="75" value="remove()" style="text;html=1;strokeColor=none;fillColor=none;align=left;verticalAlign=middle;spacingLeft=4;spacingRight=4;overflow=hidden;rotatable=0;points=[[0,0.5],[1,0.5]];portConstraint=eastwest;whiteSpace=wrap;" vertex="1" parent="63">
          <mxGeometry y="208" width="297" height="20" as="geometry" />
        </mxCell>
        <mxCell id="77" value="&amp;lt;&amp;lt;interface&amp;gt;&amp;gt;&lt;br&gt;&lt;b&gt;ChangePasswordDialogViewModel&lt;/b&gt;" style="swimlane;fontStyle=0;align=center;verticalAlign=top;childLayout=stackLayout;horizontal=1;startSize=40;horizontalStack=0;resizeParent=1;resizeParentMax=0;resizeLast=0;collapsible=0;marginBottom=0;html=1;whiteSpace=wrap;" vertex="1" parent="1">
          <mxGeometry x="315" y="548" width="259" height="128" as="geometry" />
        </mxCell>
        <mxCell id="78" value="account: Signal&amp;lt;Account&amp;gt;" style="text;html=1;strokeColor=none;fillColor=none;align=left;verticalAlign=middle;spacingLeft=4;spacingRight=4;overflow=hidden;rotatable=0;points=[[0,0.5],[1,0.5]];portConstraint=eastwest;whiteSpace=wrap;" vertex="1" parent="77">
          <mxGeometry y="40" width="259" height="20" as="geometry" />
        </mxCell>
        <mxCell id="79" value="password: FormControl&amp;lt;string&amp;gt;" style="text;html=1;strokeColor=none;fillColor=none;align=left;verticalAlign=middle;spacingLeft=4;spacingRight=4;overflow=hidden;rotatable=0;points=[[0,0.5],[1,0.5]];portConstraint=eastwest;whiteSpace=wrap;" vertex="1" parent="77">
          <mxGeometry y="60" width="259" height="20" as="geometry" />
        </mxCell>
        <mxCell id="85" value="" style="line;strokeWidth=1;fillColor=none;align=left;verticalAlign=middle;spacingTop=-1;spacingLeft=3;spacingRight=3;rotatable=0;labelPosition=right;points=[];portConstraint=eastwest;" vertex="1" parent="77">
          <mxGeometry y="80" width="259" height="8" as="geometry" />
        </mxCell>
        <mxCell id="86" value="confirm()" style="text;html=1;strokeColor=none;fillColor=none;align=left;verticalAlign=middle;spacingLeft=4;spacingRight=4;overflow=hidden;rotatable=0;points=[[0,0.5],[1,0.5]];portConstraint=eastwest;whiteSpace=wrap;" vertex="1" parent="77">
          <mxGeometry y="88" width="259" height="20" as="geometry" />
        </mxCell>
        <mxCell id="87" value="cancel()" style="text;html=1;strokeColor=none;fillColor=none;align=left;verticalAlign=middle;spacingLeft=4;spacingRight=4;overflow=hidden;rotatable=0;points=[[0,0.5],[1,0.5]];portConstraint=eastwest;whiteSpace=wrap;" vertex="1" parent="77">
          <mxGeometry y="108" width="259" height="20" as="geometry" />
        </mxCell>
        <mxCell id="91" value="&amp;lt;&amp;lt;interface&amp;gt;&amp;gt;&lt;br&gt;&lt;b&gt;ReportReplicDialogViewModel&lt;/b&gt;" style="swimlane;fontStyle=0;align=center;verticalAlign=top;childLayout=stackLayout;horizontal=1;startSize=40;horizontalStack=0;resizeParent=1;resizeParentMax=0;resizeLast=0;collapsible=0;marginBottom=0;html=1;whiteSpace=wrap;" vertex="1" parent="1">
          <mxGeometry x="315" y="694" width="259" height="108" as="geometry" />
        </mxCell>
        <mxCell id="92" value="replic: Signal&amp;lt;Replic&amp;gt;" style="text;html=1;strokeColor=none;fillColor=none;align=left;verticalAlign=middle;spacingLeft=4;spacingRight=4;overflow=hidden;rotatable=0;points=[[0,0.5],[1,0.5]];portConstraint=eastwest;whiteSpace=wrap;" vertex="1" parent="91">
          <mxGeometry y="40" width="259" height="20" as="geometry" />
        </mxCell>
        <mxCell id="94" value="" style="line;strokeWidth=1;fillColor=none;align=left;verticalAlign=middle;spacingTop=-1;spacingLeft=3;spacingRight=3;rotatable=0;labelPosition=right;points=[];portConstraint=eastwest;" vertex="1" parent="91">
          <mxGeometry y="60" width="259" height="8" as="geometry" />
        </mxCell>
        <mxCell id="95" value="confirm()" style="text;html=1;strokeColor=none;fillColor=none;align=left;verticalAlign=middle;spacingLeft=4;spacingRight=4;overflow=hidden;rotatable=0;points=[[0,0.5],[1,0.5]];portConstraint=eastwest;whiteSpace=wrap;" vertex="1" parent="91">
          <mxGeometry y="68" width="259" height="20" as="geometry" />
        </mxCell>
        <mxCell id="96" value="cancel()" style="text;html=1;strokeColor=none;fillColor=none;align=left;verticalAlign=middle;spacingLeft=4;spacingRight=4;overflow=hidden;rotatable=0;points=[[0,0.5],[1,0.5]];portConstraint=eastwest;whiteSpace=wrap;" vertex="1" parent="91">
          <mxGeometry y="88" width="259" height="20" as="geometry" />
        </mxCell>
      </root>
    </mxGraphModel>
  </diagram>
</mxfile>
